<svg width="100" height="100" viewBox="0 0 100 100" fill="none" xmlns="http://www.w3.org/2000/svg">
<rect width="100" height="100" rx="20" fill="#2DD4BF"/>
<path d="M77.1875 49.0938C77.1851 46.693 76.5029 44.3419 75.2199 42.3127C73.9368 40.2835 72.1054 38.6591 69.9375 37.6275V37.3125C69.9354 34.9772 69.1816 32.7045 67.7876 30.8308C66.3936 28.9572 64.4334 27.582 62.1972 26.9088C59.9609 26.2357 57.5674 26.3003 55.3707 27.0931C53.174 27.8859 51.2909 29.3648 50 31.3109C48.7091 29.3648 46.826 27.8859 44.6293 27.0931C42.4326 26.3003 40.0391 26.2357 37.8028 26.9088C35.5666 27.582 33.6064 28.9572 32.2124 30.8308C30.8184 32.7045 30.0646 34.9772 30.0625 37.3125V37.6275C27.8928 38.6562 26.0596 40.2796 24.7759 42.309C23.4922 44.3383 22.8108 46.6903 22.8108 49.0915C22.8108 51.4928 23.4922 53.8447 24.7759 55.8741C26.0596 57.9034 27.8928 59.5268 30.0625 60.5556V60.875C30.0646 63.2104 30.8184 65.4831 32.2124 67.3567C33.6064 69.2304 35.5666 70.6056 37.8028 71.2787C40.0391 71.9519 42.4326 71.8873 44.6293 71.0945C46.826 70.3017 48.7091 68.8228 50 66.8767C51.2909 68.8228 53.174 70.3017 55.3707 71.0945C57.5674 71.8873 59.9609 71.9519 62.1972 71.2787C64.4334 70.6056 66.3936 69.2304 67.7876 67.3567C69.1816 65.4831 69.9354 63.2104 69.9375 60.875V60.5556C72.105 59.5247 73.9363 57.9011 75.2193 55.8727C76.5024 53.8443 77.1848 51.4939 77.1875 49.0938ZM40.9375 68.125C39.1498 68.1248 37.4252 67.464 36.095 66.2697C34.7648 65.0754 33.9227 63.4317 33.7305 61.6544C34.3167 61.738 34.9079 61.7804 35.5 61.7813H37.3125C37.7932 61.7813 38.2542 61.5903 38.5941 61.2504C38.934 60.9105 39.125 60.4495 39.125 59.9688C39.125 59.4881 38.934 59.0271 38.5941 58.6871C38.2542 58.3472 37.7932 58.1563 37.3125 58.1563H35.5C33.3602 58.1588 31.2886 57.4041 29.6519 56.0258C28.0152 54.6475 26.919 52.7345 26.5573 50.6256C26.1956 48.5166 26.5919 46.3477 27.6758 44.5028C28.7598 42.658 30.4616 41.2561 32.4799 40.5456C32.8331 40.4205 33.1388 40.1892 33.355 39.8832C33.5713 39.5773 33.6874 39.2119 33.6875 38.8373V37.3125C33.6875 35.3897 34.4513 33.5456 35.811 32.186C37.1706 30.8264 39.0147 30.0625 40.9375 30.0625C42.8603 30.0625 44.7044 30.8264 46.064 32.186C47.4237 33.5456 48.1875 35.3897 48.1875 37.3125V52.7777C46.1972 50.9876 43.6144 49.9981 40.9375 50C40.4568 50 39.9958 50.191 39.6559 50.5309C39.3159 50.8708 39.125 51.3318 39.125 51.8125C39.125 52.2932 39.3159 52.7543 39.6559 53.0942C39.9958 53.4341 40.4568 53.625 40.9375 53.625C42.8603 53.625 44.7044 54.3889 46.064 55.7485C47.4237 57.1081 48.1875 58.9522 48.1875 60.875C48.1875 62.7979 47.4237 64.6419 46.064 66.0016C44.7044 67.3612 42.8603 68.125 40.9375 68.125ZM64.5 58.1563H62.6875C62.2068 58.1563 61.7458 58.3472 61.4059 58.6871C61.0659 59.0271 60.875 59.4881 60.875 59.9688C60.875 60.4495 61.0659 60.9105 61.4059 61.2504C61.7458 61.5903 62.2068 61.7813 62.6875 61.7813H64.5C65.0921 61.7804 65.6833 61.738 66.2694 61.6544C66.1189 63.047 65.5681 64.3662 64.6837 65.4524C63.7994 66.5387 62.6193 67.3455 61.2861 67.7753C59.953 68.2051 58.5239 68.2395 57.1716 67.8744C55.8193 67.5092 54.6017 66.7602 53.6661 65.7178C52.7304 64.6754 52.1168 63.3843 51.8994 62.0005C51.6819 60.6168 51.87 59.1997 52.4408 57.9205C53.0116 56.6414 53.9407 55.555 55.1159 54.7927C56.291 54.0304 57.6618 53.6248 59.0625 53.625C59.5432 53.625 60.0042 53.4341 60.3441 53.0942C60.684 52.7543 60.875 52.2932 60.875 51.8125C60.875 51.3318 60.684 50.8708 60.3441 50.5309C60.0042 50.191 59.5432 50 59.0625 50C56.3856 49.9981 53.8028 50.9876 51.8125 52.7777V37.3125C51.8125 35.3897 52.5763 33.5456 53.936 32.186C55.2956 30.8264 57.1397 30.0625 59.0625 30.0625C60.9853 30.0625 62.8294 30.8264 64.189 32.186C65.5487 33.5456 66.3125 35.3897 66.3125 37.3125V38.8373C66.3126 39.2119 66.4287 39.5773 66.6449 39.8832C66.8612 40.1892 67.1669 40.4205 67.5201 40.5456C69.5384 41.2561 71.2402 42.658 72.3242 44.5028C73.4081 46.3477 73.8044 48.5166 73.4427 50.6256C73.081 52.7345 71.9848 54.6475 70.3481 56.0258C68.7114 57.4041 66.6397 58.1588 64.5 58.1563ZM68.125 46.375C68.125 46.8557 67.934 47.3168 67.5941 47.6567C67.2542 47.9966 66.7932 48.1875 66.3125 48.1875H65.4062C63.2431 48.1875 61.1685 47.3282 59.6389 45.7986C58.1093 44.269 57.25 42.1945 57.25 40.0313V39.125C57.25 38.6443 57.4409 38.1833 57.7809 37.8434C58.1208 37.5035 58.5818 37.3125 59.0625 37.3125C59.5432 37.3125 60.0042 37.5035 60.3441 37.8434C60.684 38.1833 60.875 38.6443 60.875 39.125V40.0313C60.875 41.233 61.3524 42.3856 62.2022 43.2354C63.0519 44.0851 64.2045 44.5625 65.4062 44.5625H66.3125C66.7932 44.5625 67.2542 44.7535 67.5941 45.0934C67.934 45.4333 68.125 45.8943 68.125 46.375ZM34.5937 48.1875H33.6875C33.2068 48.1875 32.7458 47.9966 32.4059 47.6567C32.0659 47.3168 31.875 46.8557 31.875 46.375C31.875 45.8943 32.0659 45.4333 32.4059 45.0934C32.7458 44.7535 33.2068 44.5625 33.6875 44.5625H34.5937C35.7955 44.5625 36.948 44.0851 37.7978 43.2354C38.6476 42.3856 39.125 41.233 39.125 40.0313V39.125C39.125 38.6443 39.3159 38.1833 39.6559 37.8434C39.9958 37.5035 40.4568 37.3125 40.9375 37.3125C41.4182 37.3125 41.8792 37.5035 42.2191 37.8434C42.559 38.1833 42.75 38.6443 42.75 39.125V40.0313C42.75 42.1945 41.8907 44.269 40.3611 45.7986C38.8315 47.3282 36.7569 48.1875 34.5937 48.1875Z" fill="black"/>
</svg>
